
  <svg class="sssvvg" width="150px" height="150px" id="Layer_1" data-name="Layer 1" xmlns="http://www.w3.org/2000/svg" viewBox="0 0 183 184.5">
        <title>Eidk enlightening</title>

        <g id="_Group_" data-name="<Group>">
          <path
            id="_Compound_Path_"
            data-name="<Compound Path>"
            d="M57.8,240.7,56,246.5"
            transform="translate(-56 -62)"
          />
          <path
            id="_Path_"
            data-name="<Path>"
            d="M196.7,85.9a1.2,1.2,0,0,1-1.2-1.3V63.3a1.2,1.2,0,1,1,2.4,0V84.6a1.2,1.2,0,0,1-1.2,1.3"
            transform="translate(-56 -62)"
            style="fill:#ffd342"
          />
          <path
            id="_Path_2"
            data-name="<Path>"
            d="M227.5,93.9h-.7a1.4,1.4,0,0,1-.4-1.7l10.4-18.3a1.2,1.2,0,0,1,1.6-.4,1.4,1.4,0,0,1,.4,1.7L228.4,93.4a.9.9,0,0,1-.9.6"
            transform="translate(-56 -62)"
            style="fill:#ffd342"
          />
          <path
            id="_Path_3"
            data-name="<Path>"
            d="M163,93.9a1.6,1.6,0,0,1-1.1-.6L151.5,75.1a1.2,1.2,0,0,1,.4-1.7,1.1,1.1,0,0,1,1.6.4L164,92.1a1.2,1.2,0,0,1-.4,1.7.8.8,0,0,1-.5.1"
            transform="translate(-56 -62)"
            style="fill:#ffd342"
          />
          <path
            id="_Path_4"
            data-name="<Path>"
            d="M193.7,107.8v88.9H180.5v-9a3.2,3.2,0,0,0-1.6-2.8c-11.9-7-20-20.5-20-36.1s8.7-30.2,21.5-37A41.5,41.5,0,0,1,193.7,107.8Z"
            transform="translate(-56 -62)"
            style="fill:#ffd342;stroke:#000;stroke-miterlimit:10;stroke-width:2.15339994430542px"
          />
          <path
            id="_Path_5"
            data-name="<Path>"
            d="M203.7,219.2H186.8a2.6,2.6,0,0,1-2.5-2.7h0a2.6,2.6,0,0,1,2.5-2.7h16.9a2.6,2.6,0,0,1,2.5,2.7h0A2.7,2.7,0,0,1,203.7,219.2Z"
            transform="translate(-56 -62)"
          />
          <path
            id="_Path_6"
            data-name="<Path>"
            d="M208.6,205H181.8a1.9,1.9,0,0,1-1.8-2v-1.4a1.9,1.9,0,0,1,1.8-2h26.8a1.9,1.9,0,0,1,1.8,2V203A1.9,1.9,0,0,1,208.6,205Z"
            transform="translate(-56 -62)"
          />
          <path
            id="_Path_7"
            data-name="<Path>"
            d="M207.4,212H183.1a1.8,1.8,0,0,1-1.7-1.8v-1.5a1.8,1.8,0,0,1,1.7-1.8h24.3a1.8,1.8,0,0,1,1.7,1.8v1.5A1.8,1.8,0,0,1,207.4,212Z"
            transform="translate(-56 -62)"
          />
          <line
            id="_Path_8"
            data-name="<Path>"
            x1="145.1"
            y1="48.1"
            x2="154.5"
            y2="48.1"
            style="fill:none"
          />
          <rect id="_Path_9" data-name="<Path>" x="145.1" y="47.5" width="9.2" height="1.13" />
          <ellipse id="_Path_10" data-name="<Path>" cx="153.7" cy="48.1" rx="2.1" ry="2.2" />
          <path
            id="_Compound_Path_2"
            data-name="<Compound Path>"
            d="M209.7,112.9a2.8,2.8,0,1,1,2.6-2.8A2.7,2.7,0,0,1,209.7,112.9Zm0-4.4a1.7,1.7,0,1,0,1.6,1.7A1.7,1.7,0,0,0,209.7,108.5Z"
            transform="translate(-56 -62)"
          />
          <line
            id="_Path_11"
            data-name="<Path>"
            x1="156.3"
            y1="48.1"
            x2="147.1"
            y2="48.1"
            style="fill:none"
          />
          <rect id="_Path_12" data-name="<Path>" x="147.1" y="47.5" width="9.2" height="1.13" />
          <line
            id="_Path_13"
            data-name="<Path>"
            x1="145.1"
            y1="57.2"
            x2="162.7"
            y2="57.2"
            style="fill:none"
          />
          <rect id="_Path_14" data-name="<Path>" x="145.1" y="56.7" width="17.6" height="1.13" />
          <ellipse id="_Path_15" data-name="<Path>" cx="161.9" cy="57.2" rx="2.1" ry="2.2" />
          <path
            id="_Compound_Path_3"
            data-name="<Compound Path>"
            d="M217.9,122a2.8,2.8,0,1,1,2.6-2.8A2.7,2.7,0,0,1,217.9,122Zm0-4.5a1.7,1.7,0,1,0,1.6,1.7A1.7,1.7,0,0,0,217.9,117.5Z"
            transform="translate(-56 -62)"
          />
          <line
            id="_Path_16"
            data-name="<Path>"
            x1="145.1"
            y1="66.4"
            x2="170.8"
            y2="66.4"
            style="fill:none"
          />
          <rect id="_Path_17" data-name="<Path>" x="145.1" y="65.8" width="25.8" height="1.13" />
          <ellipse id="_Path_18" data-name="<Path>" cx="170.1" cy="66.4" rx="2.1" ry="2.2" />
          <path
            id="_Compound_Path_4"
            data-name="<Compound Path>"
            d="M226.1,131.2a2.8,2.8,0,1,1,2.6-2.8A2.7,2.7,0,0,1,226.1,131.2Zm0-4.5a1.7,1.7,0,1,0,1.6,1.7A1.6,1.6,0,0,0,226.1,126.7Z"
            transform="translate(-56 -62)"
          />
          <line
            id="_Path_19"
            data-name="<Path>"
            x1="145.1"
            y1="75.5"
            x2="177.3"
            y2="75.5"
            style="fill:none"
          />
          <rect id="_Path_20" data-name="<Path>" x="145.1" y="74.8" width="32.2" height="1.13" />
          <ellipse id="_Path_21" data-name="<Path>" cx="176.7" cy="75.5" rx="2.1" ry="2.2" />
          <path
            id="_Compound_Path_5"
            data-name="<Compound Path>"
            d="M232.7,140.2a2.8,2.8,0,1,1,2.6-2.8A2.7,2.7,0,0,1,232.7,140.2Zm0-4.4a1.7,1.7,0,1,0,1.6,1.7A1.7,1.7,0,0,0,232.7,135.8Z"
            transform="translate(-56 -62)"
          />
          <ellipse id="_Path_22" data-name="<Path>" cx="156.3" cy="75.5" rx="2.1" ry="2.2" />
          <path
            id="_Compound_Path_6"
            data-name="<Compound Path>"
            d="M212.3,140.2a2.8,2.8,0,1,1,2.6-2.8A2.7,2.7,0,0,1,212.3,140.2Zm0-4.4a1.7,1.7,0,1,0,1.6,1.7A1.7,1.7,0,0,0,212.3,135.8Z"
            transform="translate(-56 -62)"
          />
          <line
            id="_Path_23"
            data-name="<Path>"
            x1="145.1"
            y1="84.5"
            x2="179.2"
            y2="84.5"
            style="fill:none"
          />
          <rect id="_Path_24" data-name="<Path>" x="145.1" y="84" width="34.1" height="1.13" />
          <ellipse id="_Path_25" data-name="<Path>" cx="178.5" cy="84.5" rx="2.1" ry="2.3" />
          <path
            id="_Compound_Path_7"
            data-name="<Compound Path>"
            d="M234.5,149.3a2.8,2.8,0,1,1,2.6-2.8A2.7,2.7,0,0,1,234.5,149.3Zm0-4.5a1.7,1.7,0,1,0,1.6,1.7C236,145.7,235.3,144.8,234.5,144.8Z"
            transform="translate(-56 -62)"
          />
          <ellipse id="_Path_26" data-name="<Path>" cx="164.8" cy="84.5" rx="2.1" ry="2.3" />
          <path
            id="_Compound_Path_8"
            data-name="<Compound Path>"
            d="M220.8,149.3a2.8,2.8,0,1,1,2.6-2.8A2.7,2.7,0,0,1,220.8,149.3Zm0-4.5a1.7,1.7,0,1,0,1.6,1.7A1.7,1.7,0,0,0,220.8,144.8Z"
            transform="translate(-56 -62)"
          />
          <line
            id="_Path_27"
            data-name="<Path>"
            x1="145.1"
            y1="93.7"
            x2="177.3"
            y2="93.7"
            style="fill:none"
          />
          <rect id="_Path_28" data-name="<Path>" x="145.1" y="93.1" width="32.2" height="1.13" />
          <ellipse id="_Path_29" data-name="<Path>" cx="176.7" cy="93.7" rx="2.1" ry="2.3" />
          <path
            id="_Compound_Path_9"
            data-name="<Compound Path>"
            d="M232.7,158.5a2.8,2.8,0,1,1,2.6-2.8A2.7,2.7,0,0,1,232.7,158.5Zm0-4.5a1.7,1.7,0,1,0,1.6,1.7A1.7,1.7,0,0,0,232.7,154Z"
            transform="translate(-56 -62)"
          />
          <ellipse id="_Path_30" data-name="<Path>" cx="161.2" cy="93.7" rx="2.1" ry="2.3" />
          <path
            id="_Compound_Path_10"
            data-name="<Compound Path>"
            d="M217.2,158.5a2.8,2.8,0,1,1,2.6-2.8A2.7,2.7,0,0,1,217.2,158.5Zm0-4.5a1.7,1.7,0,1,0,1.6,1.7A1.6,1.6,0,0,0,217.2,154Z"
            transform="translate(-56 -62)"
          />
          <line
            id="_Path_31"
            data-name="<Path>"
            x1="145.1"
            y1="102.8"
            x2="169.8"
            y2="102.8"
            style="fill:none"
          />
          <rect id="_Path_32" data-name="<Path>" x="145.1" y="102.2" width="24.6" height="1.13" />
          <ellipse id="_Path_33" data-name="<Path>" cx="169" cy="102.8" rx="2.1" ry="2.3" />
          <path
            id="_Compound_Path_11"
            data-name="<Compound Path>"
            d="M225,167.6a2.8,2.8,0,1,1,2.6-2.8A2.7,2.7,0,0,1,225,167.6Zm0-4.5a1.7,1.7,0,1,0,1.6,1.7A1.6,1.6,0,0,0,225,163.1Z"
            transform="translate(-56 -62)"
          />
          <line
            id="_Path_34"
            data-name="<Path>"
            x1="145.1"
            y1="111.8"
            x2="165.8"
            y2="111.8"
            style="fill:none"
          />
          <rect id="_Path_35" data-name="<Path>" x="145.1" y="111.2" width="20.7" height="1.13" />
          <rect id="_Path_36" data-name="<Path>" x="145.1" y="47.5" width="1.1" height="82.41" />
          <ellipse id="_Path_37" data-name="<Path>" cx="165" cy="111.8" rx="2.1" ry="2.3" />
          <path
            id="_Compound_Path_12"
            data-name="<Compound Path>"
            d="M221,176.6a2.8,2.8,0,1,1,2.6-2.8A2.7,2.7,0,0,1,221,176.6Zm0-4.4a1.7,1.7,0,1,0,1.6,1.7A1.6,1.6,0,0,0,221,172.2Z"
            transform="translate(-56 -62)"
          />
          <line
            id="_Path_38"
            data-name="<Path>"
            x1="145.1"
            y1="120.9"
            x2="162"
            y2="120.9"
            style="fill:none"
          />
          <rect id="_Path_39" data-name="<Path>" x="145.1" y="120.4" width="16.9" height="1.13" />
          <ellipse id="_Path_40" data-name="<Path>" cx="161.2" cy="120.9" rx="2.1" ry="2.3" />
          <path
            id="_Compound_Path_13"
            data-name="<Compound Path>"
            d="M217.2,185.8a2.8,2.8,0,1,1,2.6-2.8A2.7,2.7,0,0,1,217.2,185.8Zm0-4.5a1.7,1.7,0,1,0,1.6,1.7A1.7,1.7,0,0,0,217.2,181.3Z"
            transform="translate(-56 -62)"
          />
          <line
            id="_Path_41"
            data-name="<Path>"
            x1="145.1"
            y1="130.1"
            x2="154.5"
            y2="130.1"
            style="fill:none"
          />
          <rect id="_Path_42" data-name="<Path>" x="145.1" y="129.5" width="9.2" height="1.13" />
          <ellipse id="_Path_43" data-name="<Path>" cx="153.7" cy="130.1" rx="2.1" ry="2.3" />
          <path
            id="_Compound_Path_14"
            data-name="<Compound Path>"
            d="M209.7,194.9a2.8,2.8,0,1,1,2.6-2.8A2.7,2.7,0,0,1,209.7,194.9Zm0-4.5a1.7,1.7,0,1,0,1.6,1.7A1.7,1.7,0,0,0,209.7,190.4Z"
            transform="translate(-56 -62)"
          />
        </g>

        <defs>
          <linearGradient id="test">
            <stop offset="0%" stop-color="#E85A37" />
            <stop offset="100%" stop-color="#E85A37" />
          </linearGradient>
        </defs>
        <g transform=" matrix(0.866, -0.40, 0.95, 0.433, 148, 70)">
          <path
            d="M 2,70 A 65,70 0 0,0 65,0 5,5 0 0,1 75,0 75,70 0 0,1 0,70Z"
            fill="#fff"
            stroke="url(#test)"
            transform="rotate(321.83)"
          >
            <animateTransform
              attributeName="transform"
              type="rotate"
              from="360 0 0"
              to="0 0 0"
              dur="1s"
              repeatCount="indefinite"
            />
          </path>
        </g>
      </svg>
